wght1000_wdth125.ufo
<glyph name="zero" format="2">
	<unicode hex="0030"/>
	<advance width="1199"/>
	<outline>
		<contour>
			<point x="73.0014648438" y="747.2963867188" type="qcurve" smooth="yes"/>
			<point x="73.0014648438" y="1114.858581543"/>
			<point x="397.7059326172" y="1509.0347900391"/>
			<point x="602.7770996094" y="1509.0347900391" type="qcurve" smooth="yes"/>
			<point x="807.8901367188" y="1509.0347900391"/>
			<point x="1125.6176757812" y="1119.8186035156"/>
			<point x="1125.6176757812" y="750.2564086914" type="qcurve" smooth="yes"/>
			<point x="1125.6176757812" y="379.5343017578"/>
			<point x="814.1611938477" y="-21.5219726562"/>
			<point x="608.7770996094" y="-21.5219726562" type="qcurve" smooth="yes"/>
			<point x="403.404296875" y="-21.5219726562"/>
			<point x="73.0014648438" y="372.0229492188"/>
		</contour>
		<contour>
			<point x="269.8454589844" y="761.9276733398" type="qcurve" smooth="yes"/>
			<point x="259" y="481"/>
			<point x="440.7731933594" y="89.5983276367"/>
			<point x="599.7770996094" y="89.5983276367" type="qcurve" smooth="yes"/>
			<point x="760.7810058594" y="89.5983276367"/>
			<point x="917" y="447"/>
			<point x="928.7736816406" y="746.2963867188" type="qcurve" smooth="yes"/>
			<point x="917" y="1027"/>
			<point x="752.7810058594" y="1392.6284790039"/>
			<point x="600.7770996094" y="1392.6284790039" type="qcurve" smooth="yes"/>
			<point x="441.7731933594" y="1392.6284790039"/>
			<point x="259" y="1060"/>
		</contour>
	</outline>
</glyph>
<glyph name="one" format="2">
	<unicode hex="0031"/>
	<advance width="937"/>
	<outline>
		<contour>
			<point x="113.4207763672" y="0" type="line"/>
			<point x="113.4207763672" y="93.9951171875" type="line"/>
			<point x="371.4207763672" y="128.9951171875" type="line"/>
			<point x="371.4207763672" y="750.4019775391" type="line"/>
			<point x="369.4207763672" y="1327.634765625" type="line"/>
			<point x="23.5008544922" y="1369.0981445312" type="line"/>
			<point x="23.5008544922" y="1473.0054931641" type="line"/>
			<point x="520.704284668" y="1488.5421142578" type="line"/>
			<point x="552.704284668" y="1453.5421142578" type="line"/>
			<point x="546.704284668" y="750.4019775391" type="line"/>
			<point x="546.704284668" y="128.9951171875" type="line"/>
			<point x="804.704284668" y="93.9951171875" type="line"/>
			<point x="804.704284668" y="0" type="line"/>
		</contour>
	</outline>
</glyph>
<glyph name="two" format="2">
	<unicode hex="0032"/>
	<advance width="1332"/>
	<outline>
		<contour>
			<point x="87.0014648438" y="0" type="line"/>
			<point x="87.0014648438" y="0.0952148438" type="line"/>
			<point x="99.0748901367" y="106.9011230469"/>
			<point x="368.0030517578" y="368.6714477539"/>
			<point x="575.9343261719" y="512.0377807617" type="qcurve" smooth="yes"/>
			<point x="785.7194824219" y="656.7622070312"/>
			<point x="974.2592163086" y="906.7030029297"/>
			<point x="974.2592163086" y="1067.4951171875" type="qcurve" smooth="yes"/>
			<point x="974.2592163086" y="1192.7147827148"/>
			<point x="811.453125" y="1292.114074707"/>
			<point x="638.0655517578" y="1292.114074707" type="qcurve" smooth="yes"/>
			<point x="517.5814208984" y="1292.114074707"/>
			<point x="279.4875488281" y="1208.142578125"/>
			<point x="189.0014648438" y="1131.2690429688" type="qcurve"/>
			<point x="104.0014648438" y="1279.2701416016" type="line"/>
			<point x="194.7127685547" y="1354.5391845703"/>
			<point x="511.3165283203" y="1510.0347900391"/>
			<point x="739.5834960938" y="1510.0347900391" type="qcurve" smooth="yes"/>
			<point x="901.8911132812" y="1510.0347900391"/>
			<point x="1162.934753418" y="1301.6610717773"/>
			<point x="1167.934753418" y="1091.6889648438" type="qcurve" smooth="yes"/>
			<point x="1173.934753418" y="848.3134155273"/>
			<point x="926.1614379883" y="577.8261108398"/>
			<point x="735.9827270508" y="456.6784667969" type="qcurve" smooth="yes"/>
			<point x="499.9716796875" y="328.0427856445"/>
			<point x="261.9709472656" y="136.1233520508"/>
			<point x="225.0156860352" y="68.041015625" type="qcurve"/>
			<point x="227.0156860352" y="56.3095092773" type="line"/>
			<point x="1200.4918823242" y="56.3095092773" type="line"/>
			<point x="1200.4918823242" y="0" type="line"/>
		</contour>
	</outline>
</glyph>
<glyph name="three" format="2">
	<unicode hex="0033"/>
	<advance width="1224"/>
	<outline>
		<contour>
			<point x="-18.9985351562" y="118" type="qcurve"/>
			<point x="73.0198364258" y="258.5946044922" type="line"/>
			<point x="138.8103637695" y="204.3411865234"/>
			<point x="341.2714233398" y="135.6679077148"/>
			<point x="445.5692749023" y="135.6679077148" type="qcurve" smooth="yes"/>
			<point x="618.1762695312" y="135.6679077148"/>
			<point x="844.2048950195" y="265.4594726562"/>
			<point x="844.2048950195" y="415.56640625" type="qcurve" smooth="yes"/>
			<point x="844.2048950195" y="592.004699707"/>
			<point x="558.104309082" y="703.4879150391"/>
			<point x="344.0159301758" y="707.4879150391" type="qcurve" smooth="yes"/>
			<point x="274.6159667969" y="707.4879150391" type="line"/>
			<point x="242.7458496094" y="844.4304199219" type="line"/>
			<point x="362.4116821289" y="849.6876220703" type="line" smooth="yes"/>
			<point x="531.6073608398" y="857.2506713867"/>
			<point x="818.3823242188" y="994.3768920898"/>
			<point x="815.3823242188" y="1155.771484375" type="qcurve" smooth="yes"/>
			<point x="813.3823242188" y="1255.6008300781"/>
			<point x="676.7866210938" y="1328.6755371094"/>
			<point x="529.796081543" y="1328.6755371094" type="qcurve" smooth="yes"/>
			<point x="412.1664428711" y="1328.6755371094"/>
			<point x="220.9440917969" y="1276.7830200195"/>
			<point x="144.7224121094" y="1223.3430175781" type="qcurve"/>
			<point x="65.2734375" y="1345.1502075195" type="line"/>
			<point x="142.3908081055" y="1400.1237182617"/>
			<point x="400.194519043" y="1507.9548339844"/>
			<point x="615.1171875" y="1507.9548339844" type="qcurve" smooth="yes"/>
			<point x="850.2910766602" y="1507.9548339844"/>
			<point x="1071.618347168" y="1328.1541748047"/>
			<point x="1071.618347168" y="1177.3840942383" type="qcurve" smooth="yes"/>
			<point x="1071.618347168" y="1016.1237792969"/>
			<point x="902.8321533203" y="846.1367797852"/>
			<point x="693.8026733398" y="809.6029663086" type="qcurve"/>
			<point x="693.8026733398" y="802.6829223633" type="line"/>
			<point x="909.6632080078" y="788.1364746094"/>
			<point x="1116.487487793" y="626.4495849609"/>
			<point x="1116.487487793" y="446.6302490234" type="qcurve" smooth="yes"/>
			<point x="1116.487487793" y="242.5763549805"/>
			<point x="792.4115600586" y="-21.0244140625"/>
			<point x="504.689453125" y="-21.0244140625" type="qcurve" smooth="yes"/>
			<point x="313.1282348633" y="-21.0244140625"/>
			<point x="22.8766479492" y="73.1158447266"/>
		</contour>
	</outline>
</glyph>
<glyph name="four" format="2">
	<unicode hex="0034"/>
	<advance width="1342"/>
	<outline>
		<contour>
			<point x="54.0014648438" y="532.9616699219" type="line"/>
			<point x="951.6083984375" y="1472.5855712891" type="line"/>
			<point x="1250.1428833008" y="1465.5855712891" type="line"/>
			<point x="1042.8919067383" y="1379.5855712891" type="line"/>
			<point x="1035.8919067383" y="511.9616699219" type="line"/>
			<point x="1035.8919067383" y="128.9951171875" type="line"/>
			<point x="1236.8919067383" y="93.9951171875" type="line"/>
			<point x="1236.8919067383" y="0" type="line"/>
			<point x="593.6083984375" y="0" type="line"/>
			<point x="593.6083984375" y="93.9951171875" type="line"/>
			<point x="875.6083984375" y="128.9951171875" type="line"/>
			<point x="873.6083984375" y="509.9616699219" type="line"/>
			<point x="867.6083984375" y="1174.3399047852" type="line"/>
			<point x="254.8664550781" y="570.640625" type="line"/>
			<point x="257.8664550781" y="552.640625" type="line"/>
			<point x="1255.8650512695" y="558.640625" type="line"/>
			<point x="1255.8650512695" y="438.2919311523" type="line"/>
			<point x="82.0014648438" y="413.2919311523" type="line"/>
		</contour>
	</outline>
</glyph>
<glyph name="five" format="2">
	<unicode hex="0035"/>
	<advance width="1215"/>
	<outline>
		<contour>
			<point x="12.0014648438" y="121" type="qcurve"/>
			<point x="95.5986328125" y="260.6212158203" type="line"/>
			<point x="161.7068481445" y="208.5424804688"/>
			<point x="394.9208984375" y="128.0403442383"/>
			<point x="512.3448486328" y="128.0403442383" type="qcurve" smooth="yes"/>
			<point x="694.8026733398" y="128.0403442383"/>
			<point x="870.8962402344" y="305.8120727539"/>
			<point x="870.8962402344" y="480.0315551758" type="qcurve" smooth="yes"/>
			<point x="870.8962402344" y="627.5460205078"/>
			<point x="694.7716674805" y="746.7010498047"/>
			<point x="449.546875" y="746.7010498047" type="qcurve" smooth="yes"/>
			<point x="274.8715820312" y="746.7010498047" type="line"/>
			<point x="230.8715820312" y="767.7229003906" type="line"/>
			<point x="291.8715820312" y="1457.6451416016" type="line"/>
			<point x="328.8715820312" y="1490.6451416016" type="line"/>
			<point x="1021.3049926758" y="1490.6451416016" type="line"/>
			<point x="1036.0231933594" y="1427.0462036133" type="line"/>
			<point x="447.7669677734" y="1427.0462036133" type="line"/>
			<point x="428.509765625" y="1409.0462036133" type="line"/>
			<point x="365.8365478516" y="876.1226806641" type="line"/>
			<point x="606.4753417969" y="905.8828125" type="line"/>
			<point x="808.8342285156" y="905.0889282227"/>
			<point x="1080.7971801758" y="663.0172119141"/>
			<point x="1080.7971801758" y="447.9732055664" type="qcurve" smooth="yes"/>
			<point x="1080.7971801758" y="219.4963989258"/>
			<point x="817.4897460938" y="-21.0244140625"/>
			<point x="554.5912475586" y="-21.0244140625" type="qcurve" smooth="yes"/>
			<point x="379.8163452148" y="-21.0244140625"/>
			<point x="70.7509155273" y="66.453918457"/>
		</contour>
	</outline>
</glyph>
<glyph name="six" format="2">
	<unicode hex="0036"/>
	<advance width="1099"/>
	<outline>
		<contour>
			<point x="79.0014648438" y="615.9622192383" type="qcurve" smooth="yes"/>
			<point x="79.0014648438" y="1005.5842895508"/>
			<point x="521.8728027344" y="1533.124206543"/>
			<point x="878.82421875" y="1542.5421142578" type="qcurve"/>
			<point x="882.5374145508" y="1415.2239990234" type="line"/>
			<point x="654.5107421875" y="1397.1531982422"/>
			<point x="275.3875732422" y="1003.7506713867"/>
			<point x="275.3875732422" y="605.9622192383" type="qcurve" smooth="yes"/>
			<point x="275.3875732422" y="421.8840942383"/>
			<point x="439.0668945312" y="101.4669189453"/>
			<point x="591.1253662109" y="101.4669189453" type="qcurve" smooth="yes"/>
			<point x="715.3278808594" y="101.4669189453"/>
			<point x="858.8258666992" y="377.8587646484"/>
			<point x="858.9544677734" y="507.8831787109" type="qcurve" smooth="yes"/>
			<point x="859.0830688477" y="610.7268676758"/>
			<point x="752.8419189453" y="810.4939575195"/>
			<point x="650.4110107422" y="810.4939575195" type="qcurve" smooth="yes"/>
			<point x="575.3334960938" y="810.4939575195"/>
			<point x="483.9754638672" y="789.1923217773"/>
			<point x="463.60546875" y="781.8788452148" type="qcurve"/>
			<point x="429.4647216797" y="880.8362426758" type="line"/>
			<point x="425.6952514648" y="896.8533325195"/>
			<point x="558.7590332031" y="967.1452636719"/>
			<point x="647.5360717773" y="967.1452636719" type="qcurve" smooth="yes"/>
			<point x="830.3008422852" y="967.1452636719"/>
			<point x="1057.8168334961" y="735.5224609375"/>
			<point x="1057.8168334961" y="536.7130737305" type="qcurve" smooth="yes"/>
			<point x="1057.8168334961" y="267.6882324219"/>
			<point x="703.6068115234" y="-18.5268554688"/>
			<point x="550.4713745117" y="-18.5268554688" type="qcurve" smooth="yes"/>
			<point x="359.971496582" y="-18.5268554688"/>
			<point x="79.0014648438" y="317.168762207"/>
		</contour>
	</outline>
</glyph>
<glyph name="seven" format="2">
	<unicode hex="0037"/>
	<advance width="1196"/>
	<outline>
		<contour>
			<point x="61.4026489258" y="1199.1651000977" type="line"/>
			<point x="44.4990844727" y="1490.6451416016" type="line"/>
			<point x="1182.8305053711" y="1490.6451416016" type="line"/>
			<point x="1182.8305053711" y="1459.4337158203" type="line"/>
			<point x="785.7914428711" y="706.8726806641" type="line"/>
			<point x="341.3180541992" y="-57.0439453125" type="line"/>
			<point x="210.9489135742" y="-57.0439453125" type="line"/>
			<point x="210.9489135742" y="24.9560546875" type="line"/>
			<point x="635.6498413086" y="732.9622192383" type="line"/>
			<point x="1047.4506225586" y="1401.6909179688" type="line"/>
			<point x="1014.7864379883" y="1433.167175293" type="line"/>
			<point x="218.18359375" y="1433.167175293" type="line"/>
			<point x="178.4909667969" y="1199.1651000977" type="line"/>
		</contour>
	</outline>
</glyph>
<glyph name="eight" format="2">
	<unicode hex="0038"/>
	<advance width="1173"/>
	<outline>
		<contour>
			<point x="31.0014648438" y="401.317199707" type="qcurve" smooth="yes"/>
			<point x="31.0014648438" y="588.4680786133"/>
			<point x="347.8380126953" y="825.069152832"/>
			<point x="595.8115844727" y="874.5389404297" type="qcurve"/>
			<point x="694.7504272461" y="823.9380493164" type="line"/>
			<point x="598.9195556641" y="764.3458862305"/>
			<point x="463.5205688477" y="551.2992553711"/>
			<point x="463.5205688477" y="391.1696777344" type="qcurve" smooth="yes"/>
			<point x="463.5205688477" y="249.8345336914"/>
			<point x="501.3729858398" y="95.5582275391"/>
			<point x="604.4884033203" y="95.5582275391" type="qcurve" smooth="yes"/>
			<point x="754.5148925781" y="95.5582275391"/>
			<point x="937.2446899414" y="267.6606445312"/>
			<point x="937.2446899414" y="420.4121704102" type="qcurve" smooth="yes"/>
			<point x="937.2446899414" y="544.7582397461"/>
			<point x="863.576171875" y="720.0431518555"/>
			<point x="711.1755981445" y="770.6632080078" type="qcurve" smooth="yes"/>
			<point x="413.9090576172" y="871.0756835938"/>
			<point x="183.8508911133" y="1046.1364746094"/>
			<point x="187.8508911133" y="1236.5275268555" type="qcurve" smooth="yes"/>
			<point x="191.8508911133" y="1356.0939941406"/>
			<point x="351.9996948242" y="1513.8424072266"/>
			<point x="530.4369506836" y="1513.8424072266" type="qcurve" smooth="yes"/>
			<point x="750.8705444336" y="1513.8424072266"/>
			<point x="1009.5772094727" y="1338.9080810547"/>
			<point x="1009.5772094727" y="1197.4896850586" type="qcurve" smooth="yes"/>
			<point x="1009.5772094727" y="1084.0961303711"/>
			<point x="790.1636962891" y="881.6372070312"/>
			<point x="593.8734741211" y="800.2083129883" type="qcurve"/>
			<point x="483.858581543" y="845.5440673828" type="line"/>
			<point x="571.1670532227" y="930.6210327148"/>
			<point x="637.182800293" y="1109.7941894531"/>
			<point x="637.182800293" y="1201.48828125" type="qcurve" smooth="yes"/>
			<point x="637.182800293" y="1288.9868164062"/>
			<point x="573.4895019531" y="1374.3854980469"/>
			<point x="496.5422973633" y="1374.3854980469" type="qcurve" smooth="yes"/>
			<point x="411.9080200195" y="1374.3854980469"/>
			<point x="288.7548217773" y="1254.8505859375"/>
			<point x="288.7548217773" y="1160.7347412109" type="qcurve" smooth="yes"/>
			<point x="288.7548217773" y="1044.5137939453"/>
			<point x="504.899597168" y="898.7842407227"/>
			<point x="733.8571166992" y="829.0625610352" type="qcurve" smooth="yes"/>
			<point x="853.7122192383" y="796.1577148438"/>
			<point x="1119.2552490234" y="584.1248779297"/>
			<point x="1119.2552490234" y="406.3582763672" type="qcurve" smooth="yes"/>
			<point x="1119.2552490234" y="231.5283203125"/>
			<point x="892.5728149414" y="-21.5219726562"/>
			<point x="594.9745483398" y="-21.5219726562" type="qcurve" smooth="yes"/>
			<point x="275.1197509766" y="-21.5219726562"/>
			<point x="31.0014648438" y="225.209777832"/>
		</contour>
	</outline>
</glyph>
<glyph name="nine" format="2">
	<unicode hex="0039"/>
	<advance width="1085"/>
	<outline>
		<contour>
			<point x="67.0014648438" y="977.0095825195" type="qcurve" smooth="yes"/>
			<point x="67.0014648438" y="1229.3011474609"/>
			<point x="369.690246582" y="1510.7460327148"/>
			<point x="521.2427368164" y="1510.7460327148" type="qcurve" smooth="yes"/>
			<point x="694.2982177734" y="1510.7460327148"/>
			<point x="998.8168334961" y="1178.6116943359"/>
			<point x="998.8168334961" y="834.0530395508" type="qcurve" smooth="yes"/>
			<point x="998.8168334961" y="440.0861816406"/>
			<point x="573.1536865234" y="-37.2540283203"/>
			<point x="216.6919555664" y="-47.1665039062" type="qcurve"/>
			<point x="232.9138183594" y="79.9356689453" type="line"/>
			<point x="455.9836425781" y="95.4737548828"/>
			<point x="802.67578125" y="492.8676147461"/>
			<point x="802.67578125" y="841.0130615234" type="qcurve" smooth="yes"/>
			<point x="802.67578125" y="1098.0447998047"/>
			<point x="657.6989746094" y="1397.3109130859"/>
			<point x="503.6687011719" y="1397.3109130859" type="qcurve" smooth="yes"/>
			<point x="369.7620239258" y="1397.3109130859"/>
			<point x="218.1088867188" y="1135.4282226562"/>
			<point x="218.1088867188" y="1019.5863037109" type="qcurve" smooth="yes"/>
			<point x="218.1088867188" y="866.3858032227"/>
			<point x="306.4230957031" y="665.2241210938"/>
			<point x="412.7173461914" y="665.2241210938" type="qcurve" smooth="yes"/>
			<point x="487.3925170898" y="665.2241210938"/>
			<point x="582.8624267578" y="689.05859375"/>
			<point x="603.1521606445" y="696.8324584961" type="qcurve"/>
			<point x="638.1921386719" y="613.4631347656" type="line"/>
			<point x="646.4543457031" y="596.608581543"/>
			<point x="535.841796875" y="528.643371582"/>
			<point x="447.5501098633" y="529.3723144531" type="qcurve" smooth="yes"/>
			<point x="287.5645141602" y="531.5591430664"/>
			<point x="67.0014648438" y="760.2129516602"/>
		</contour>
	</outline>
</glyph>
<glyph name="B" format="2">
	<unicode hex="0042"/>
	<advance width="1500"/>
	<outline>
		<contour>
			<point x="81.9946289062" y="0" type="line"/>
			<point x="81.9946289062" y="99.9951171875" type="line"/>
			<point x="289.9970703125" y="133.9951171875" type="line"/>
			<point x="291.9970703125" y="724" type="line"/>
			<point x="289.9970703125" y="1352.0048828125" type="line"/>
			<point x="81.9946289062" y="1386.0048828125" type="line"/>
			<point x="81.9946289062" y="1500" type="line"/>
			<point x="768.5101318359" y="1500" type="line" smooth="yes"/>
			<point x="1026.8812255859" y="1500"/>
			<point x="1281.2405395508" y="1312"/>
			<point x="1281.2405395508" y="1169" type="qcurve" smooth="yes"/>
			<point x="1281.2405395508" y="1034"/>
			<point x="1148.3737792969" y="854"/>
			<point x="981.5552978516" y="831" type="qcurve"/>
			<point x="981.5552978516" y="824" type="line"/>
			<point x="1165.0280151367" y="796"/>
			<point x="1382.4358520508" y="604"/>
			<point x="1382.4358520508" y="433" type="qcurve" smooth="yes"/>
			<point x="1382.4358520508" y="246"/>
			<point x="1073.130065918" y="0"/>
			<point x="809.9500732422" y="0" type="qcurve" smooth="yes"/>
		</contour>
		<contour>
			<point x="461.9858398438" y="144.3265991211" type="line"/>
			<point x="478.9858398438" y="124.3265991211" type="line"/>
			<point x="803.525390625" y="124.3265991211" type="line" smooth="yes"/>
			<point x="1005.6215820312" y="124.3265991211"/>
			<point x="1189.7651367188" y="282.911315918"/>
			<point x="1189.7651367188" y="437.5700073242" type="qcurve" smooth="yes"/>
			<point x="1189.7651367188" y="583.4454956055"/>
			<point x="1015.7438964844" y="739.1647338867"/>
			<point x="862.4575195312" y="739.1647338867" type="qcurve" smooth="yes"/>
			<point x="473.9858398438" y="739.1647338867" type="line"/>
			<point x="459.9858398438" y="728.1647338867" type="line"/>
		</contour>
		<contour>
			<point x="459.9858398438" y="867.8156738281" type="line"/>
			<point x="470.9858398438" y="857.8156738281" type="line"/>
			<point x="788.6381835938" y="857.8156738281" type="line" smooth="yes"/>
			<point x="942.9483642578" y="857.8156738281"/>
			<point x="1080.5698242188" y="1003.5555419922"/>
			<point x="1080.5698242188" y="1135.9730224609" type="qcurve" smooth="yes"/>
			<point x="1080.5698242188" y="1260.0164794922"/>
			<point x="933.6188964844" y="1374.7225341797"/>
			<point x="799.7133789062" y="1374.7225341797" type="qcurve" smooth="yes"/>
			<point x="479.9858398438" y="1374.7225341797" type="line"/>
			<point x="463.9858398438" y="1360.7225341797" type="line"/>
		</contour>
	</outline>
	<anchor name="bottom" x="614" y="0"/>
	<anchor name="top" x="614" y="1500"/>
</glyph>
<glyph name="H" format="2">
	<unicode hex="0048"/>
	<advance width="1740"/>
	<outline>
		<contour>
			<point x="81.9946289062" y="0" type="line"/>
			<point x="81.9946289062" y="99.9951171875" type="line"/>
			<point x="289.9970703125" y="134.9951171875" type="line"/>
			<point x="291.9970703125" y="754" type="line"/>
			<point x="289.9970703125" y="1352.0048828125" type="line"/>
			<point x="81.9946289062" y="1386.0048828125" type="line"/>
			<point x="81.9946289062" y="1500" type="line"/>
			<point x="673.2518920898" y="1500" type="line"/>
			<point x="673.2518920898" y="1386.0048828125" type="line"/>
			<point x="470.2494506836" y="1352.0048828125" type="line"/>
			<point x="468.2494506836" y="754" type="line"/>
			<point x="470.2494506836" y="134.9951171875" type="line"/>
			<point x="673.2518920898" y="99.9951171875" type="line"/>
			<point x="673.2518920898" y="0" type="line"/>
		</contour>
		<contour>
			<point x="218.2494506836" y="710.6364746094" type="line"/>
			<point x="218.2494506836" y="842.6313476562" type="line"/>
			<point x="875.8534545898" y="834.6313476562" type="line"/>
			<point x="1531.2333374023" y="842.6313476562" type="line"/>
			<point x="1531.2333374023" y="710.6364746094" type="line"/>
			<point x="875.8534545898" y="710.6364746094" type="line"/>
		</contour>
		<contour>
			<point x="1067.2308959961" y="0" type="line"/>
			<point x="1067.2308959961" y="99.9951171875" type="line"/>
			<point x="1270.2333374023" y="134.9951171875" type="line"/>
			<point x="1272.2333374023" y="754" type="line"/>
			<point x="1270.2333374023" y="1352.0048828125" type="line"/>
			<point x="1067.2308959961" y="1386.0048828125" type="line"/>
			<point x="1067.2308959961" y="1500" type="line"/>
			<point x="1658.4881591797" y="1500" type="line"/>
			<point x="1658.4881591797" y="1386.0048828125" type="line"/>
			<point x="1450.4857177734" y="1352.0048828125" type="line"/>
			<point x="1448.4857177734" y="754" type="line"/>
			<point x="1450.4857177734" y="134.9951171875" type="line"/>
			<point x="1658.4881591797" y="99.9951171875" type="line"/>
			<point x="1658.4881591797" y="0" type="line"/>
		</contour>
	</outline>
	<anchor name="bottom" x="870" y="0"/>
	<anchor name="center" x="870" y="1079"/>
	<anchor name="top" x="870" y="1500"/>
	<anchor name="tonos" x="0" y="1500"/>
	<anchor name="cy_descender" x="1658" y="100"/>
</glyph>
<glyph name="M" format="2">
	<unicode hex="004D"/>
	<advance width="2078"/>
	<outline>
		<contour>
			<point x="90.9946289062" y="0" type="line"/>
			<point x="90.9946289062" y="99.9951171875" type="line"/>
			<point x="287.9970703125" y="134.9951171875" type="line"/>
			<point x="289.9970703125" y="754" type="line"/>
			<point x="287.9970703125" y="1353.0048828125" type="line"/>
			<point x="90.9946289062" y="1387.0048828125" type="line"/>
			<point x="90.9946289062" y="1500" type="line"/>
			<point x="566.2005004883" y="1500" type="line"/>
			<point x="835.3735961914" y="782.4731445312" type="line"/>
			<point x="991.0955200195" y="364.6856079102" type="line"/>
			<point x="1049.3667602539" y="190.1835327148" type="line"/>
			<point x="1059.3667602539" y="190.1835327148" type="line"/>
			<point x="1117.9133911133" y="364.4102172852" type="line"/>
			<point x="1286.092590332" y="834.0454101562" type="line"/>
			<point x="1526.0217285156" y="1500" type="line"/>
			<point x="1995.7734985352" y="1500" type="line"/>
			<point x="1995.7734985352" y="1387.0048828125" type="line"/>
			<point x="1798.7710571289" y="1353.0048828125" type="line"/>
			<point x="1796.7710571289" y="754" type="line"/>
			<point x="1798.7710571289" y="134.9951171875" type="line"/>
			<point x="1995.7734985352" y="99.9951171875" type="line"/>
			<point x="1995.7734985352" y="0" type="line"/>
			<point x="1415.9431762695" y="0" type="line"/>
			<point x="1415.9431762695" y="99.9951171875" type="line"/>
			<point x="1605.9456176758" y="134.9951171875" type="line"/>
			<point x="1608.9456176758" y="752" type="line"/>
			<point x="1606.5230102539" y="1127.1647338867" type="line"/>
			<point x="1610.5230102539" y="1308.1647338867" type="line"/>
			<point x="1600.5230102539" y="1311.1647338867" type="line"/>
			<point x="1534.3062133789" y="1124.4108276367" type="line"/>
			<point x="1392.8557739258" y="765.783203125" type="line"/>
			<point x="1097.6520996094" y="-5" type="line"/>
			<point x="927.6680908203" y="-5" type="line"/>
			<point x="672.7710571289" y="665.3798217773" type="line"/>
			<point x="484.5513305664" y="1125.8068237305" type="line"/>
			<point x="430.3801879883" y="1290.2212524414" type="line"/>
			<point x="420.3801879883" y="1287.2212524414" type="line"/>
			<point x="425.3801879883" y="1128.2212524414" type="line"/>
			<point x="426.0632324219" y="754" type="line"/>
			<point x="428.0632324219" y="134.9951171875" type="line"/>
			<point x="605.0656738281" y="99.9951171875" type="line"/>
			<point x="605.0656738281" y="0" type="line"/>
		</contour>
	</outline>
	<anchor name="bottom" x="1025" y="0"/>
	<anchor name="top" x="1058" y="1500"/>
</glyph>
<glyph name="O" format="2">
	<unicode hex="004F"/>
	<advance width="1676"/>
	<outline>
		<contour>
			<point x="81" y="743" type="qcurve" smooth="yes"/>
			<point x="81" y="1070.7658691406"/>
			<point x="502.692565918" y="1519.5366210938"/>
			<point x="837.6708984375" y="1519.5366210938" type="qcurve" smooth="yes"/>
			<point x="1190.6340942383" y="1519.5366210938"/>
			<point x="1595.2666015625" y="1099.7658691406"/>
			<point x="1595.2666015625" y="758" type="qcurve" smooth="yes"/>
			<point x="1595.2666015625" y="432.2341308594"/>
			<point x="1177.8981323242" y="-17.5366210938"/>
			<point x="843.6708984375" y="-17.5366210938" type="qcurve" smooth="yes"/>
			<point x="488.6657714844" y="-17.5366210938"/>
			<point x="81" y="395.2341308594"/>
		</contour>
		<contour>
			<point x="273.6420898438" y="779" type="qcurve" smooth="yes"/>
			<point x="273.6420898438" y="435.8369140625"/>
			<point x="579.0745849609" y="122.1486816406"/>
			<point x="837.6708984375" y="122.1486816406" type="qcurve" smooth="yes"/>
			<point x="1109.0765380859" y="122.1486816406"/>
			<point x="1396.6245117188" y="416.91015625"/>
			<point x="1396.6245117188" y="755" type="qcurve" smooth="yes"/>
			<point x="1396.6245117188" y="1055.921875"/>
			<point x="1113.3862304688" y="1377.323059082"/>
			<point x="835.6708984375" y="1377.323059082" type="qcurve" smooth="yes"/>
			<point x="563.669921875" y="1377.323059082"/>
			<point x="273.6420898438" y="1060.005859375"/>
		</contour>
	</outline>
	<anchor name="bottom" x="832" y="0"/>
	<anchor name="center" x="832" y="750"/>
	<anchor name="ogonek" x="1064" y="0"/>
	<anchor name="top" x="832" y="1500"/>
	<anchor name="topright" x="1028" y="1500"/>
	<anchor name="tonos" x="140" y="1500"/>
	<anchor name="_yu_dash" x="169" y="755"/>
</glyph>
<glyph name="R" format="2">
	<unicode hex="0052"/>
	<advance width="1464"/>
	<outline>
		<contour>
			<point x="81.9946289062" y="0" type="line"/>
			<point x="81.9946289062" y="99.9951171875" type="line"/>
			<point x="289.9970703125" y="134.9951171875" type="line"/>
			<point x="291.9970703125" y="768.7277832031" type="line"/>
			<point x="289.9970703125" y="1352.0048828125" type="line"/>
			<point x="81.9946289062" y="1386.0048828125" type="line"/>
			<point x="81.9946289062" y="1500" type="line"/>
			<point x="860.3584594727" y="1500" type="line" smooth="yes"/>
			<point x="1011.49609375" y="1500"/>
			<point x="1255.8840942383" y="1289.1499633789"/>
			<point x="1255.8840942383" y="1120.6512451172" type="qcurve" smooth="yes"/>
			<point x="1255.8840942383" y="949.842956543"/>
			<point x="1019.4697265625" y="683.2729492188"/>
			<point x="968.3897094727" y="683.2729492188" type="qcurve" smooth="yes"/>
			<point x="896.6507568359" y="683.2729492188"/>
			<point x="427.2822875977" y="690.2729492188"/>
			<point x="380.6189575195" y="696.2729492188" type="qcurve"/>
			<point x="379.6189575195" y="835.2825927734" type="line"/>
			<point x="874.7440795898" y="835.2825927734" type="line" smooth="yes"/>
			<point x="976.4586791992" y="835.2825927734"/>
			<point x="1067.3681030273" y="979.1904296875"/>
			<point x="1067.3681030273" y="1122.4399414062" type="qcurve" smooth="yes"/>
			<point x="1067.3681030273" y="1228.640625"/>
			<point x="967.785949707" y="1347.3638305664"/>
			<point x="869.2855834961" y="1347.3638305664" type="qcurve" smooth="yes"/>
			<point x="486.2494506836" y="1347.3638305664" type="line"/>
			<point x="466.2494506836" y="1330.3638305664" type="line"/>
			<point x="463.2494506836" y="720" type="line"/>
			<point x="464.2494506836" y="134.9951171875" type="line"/>
			<point x="676.2518920898" y="99.9951171875" type="line"/>
			<point x="676.2518920898" y="0" type="line"/>
		</contour>
		<contour>
			<point x="808.2888793945" y="740.7879638672" type="line"/>
			<point x="948.8048706055" y="790.7421264648" type="line"/>
			<point x="1186.2176513672" y="340.9951171875" type="line" smooth="yes"/>
			<point x="1248.5173339844" y="219.0955810547"/>
			<point x="1326.3651123047" y="104.9951171875"/>
			<point x="1438.2668457031" y="99.9951171875" type="qcurve"/>
			<point x="1438.2668457031" y="0" type="line"/>
			<point x="1194.3383178711" y="0" type="line"/>
			<point x="1134.3383178711" y="56" type="line"/>
		</contour>
	</outline>
	<anchor name="bottom" x="803" y="0"/>
	<anchor name="top" x="630" y="1500"/>
</glyph>
<glyph name="U" format="2">
	<unicode hex="0055"/>
	<advance width="1797"/>
	<outline>
		<contour>
			<point x="54.4948730469" y="1387.0048828125" type="line"/>
			<point x="54.4948730469" y="1500" type="line"/>
			<point x="633.3968505859" y="1500" type="line"/>
			<point x="633.3968505859" y="1387.0048828125" type="line"/>
			<point x="450.3944091797" y="1353.0048828125" type="line"/>
			<point x="447.3944091797" y="861.744140625" type="line"/>
			<point x="448.3944091797" y="621.5369262695" type="line" smooth="yes"/>
			<point x="449.8591308594" y="410.5173950195"/>
			<point x="592.0930786133" y="124.5966186523"/>
			<point x="894.6422729492" y="124.5966186523" type="qcurve" smooth="yes"/>
			<point x="1202.239074707" y="124.5966186523"/>
			<point x="1362.0426025391" y="395.5173950195"/>
			<point x="1366.0992431641" y="636.5369262695" type="qcurve" smooth="yes"/>
			<point x="1365.0240478516" y="861.744140625" type="line"/>
			<point x="1364.0992431641" y="1353.0048828125" type="line"/>
			<point x="1166.0968017578" y="1387.0048828125" type="line"/>
			<point x="1166.0968017578" y="1500" type="line"/>
			<point x="1691.2317504883" y="1500" type="line"/>
			<point x="1691.2317504883" y="1387.0048828125" type="line"/>
			<point x="1505.229309082" y="1353.0048828125" type="line"/>
			<point x="1504.229309082" y="861.744140625" type="line"/>
			<point x="1507.5462646484" y="635.5180664062" type="line" smooth="yes"/>
			<point x="1513.7128295898" y="308.8967285156"/>
			<point x="1297.116394043" y="-18.5366210938"/>
			<point x="887.0924072266" y="-18.5366210938" type="qcurve" smooth="yes"/>
			<point x="497.0704345703" y="-18.5366210938"/>
			<point x="270.5725097656" y="289.4975585938"/>
			<point x="271.4973144531" y="623.5932617188" type="qcurve" smooth="yes"/>
			<point x="271.760925293" y="861.744140625" type="line"/>
			<point x="271.4973144531" y="1353.0048828125" type="line"/>
		</contour>
	</outline>
	<anchor name="bottom" x="832" y="0"/>
	<anchor name="ogonek" x="1042" y="0"/>
	<anchor name="top" x="832" y="1500"/>
	<anchor name="topright" x="1590" y="1500"/>
</glyph>
<glyph name="b" format="2">
	<unicode hex="0062"/>
	<advance width="1199"/>
	<outline>
		<contour>
			<point x="150.2561645508" y="0" type="line"/>
			<point x="152.2561645508" y="426.9993896484" type="line"/>
			<point x="150.9053344727" y="1375.5947265625" type="line"/>
			<point x="3.9053344727" y="1405.5947265625" type="line"/>
			<point x="3.9053344727" y="1500" type="line"/>
			<point x="235.735168457" y="1529.0244140625" type="line"/>
			<point x="268.735168457" y="1529.0244140625" type="line"/>
			<point x="327.735168457" y="1480.0244140625" type="line"/>
			<point x="326.735168457" y="822.059753418" type="line"/>
			<point x="351.5982666016" y="908.7199707031"/>
			<point x="550.5914306641" y="1013.93359375"/>
			<point x="695.1988525391" y="1013.93359375" type="qcurve" smooth="yes"/>
			<point x="883.8669433594" y="1013.93359375"/>
			<point x="1131.0900878906" y="736.6696777344"/>
			<point x="1131.0900878906" y="527.2497558594" type="qcurve" smooth="yes"/>
			<point x="1131.0900878906" y="302.2834472656"/>
			<point x="878.7322387695" y="-20.2780761719"/>
			<point x="655.7333984375" y="-20.2780761719" type="qcurve" smooth="yes"/>
			<point x="517.8317871094" y="-20.2780761719"/>
			<point x="335.8801269531" y="55.4877929688"/>
			<point x="305.2639770508" y="93.7830810547" type="qcurve"/>
			<point x="198.2639770508" y="0" type="line"/>
		</contour>
		<contour>
			<point x="328.735168457" y="352.3900756836" type="line"/>
			<point x="323.735168457" y="266.7653198242" type="line"/>
			<point x="348.3833618164" y="208.9196777344"/>
			<point x="533.9200439453" y="117.1694946289"/>
			<point x="646.565246582" y="117.1694946289" type="qcurve" smooth="yes"/>
			<point x="799.3218383789" y="117.1694946289"/>
			<point x="982.7685546875" y="383.2520141602"/>
			<point x="982.7685546875" y="491.8642578125" type="qcurve" smooth="yes"/>
			<point x="982.7685546875" y="603.5645751953"/>
			<point x="789.9619750977" y="847.4584960938"/>
			<point x="631.2053833008" y="847.4584960938" type="qcurve" smooth="yes"/>
			<point x="521.9780273438" y="847.4584960938"/>
			<point x="366.978515625" y="754.1494140625"/>
			<point x="326.735168457" y="693.6495361328" type="qcurve"/>
		</contour>
	</outline>
	<anchor name="bottom" x="571" y="0"/>
	<anchor name="top" x="571" y="1533"/>
</glyph>
<glyph name="f" format="2">
	<unicode hex="0066"/>
	<advance width="623"/>
	<outline>
		<contour>
			<point x="76.524597168" y="0" type="line"/>
			<point x="76.524597168" y="80.005859375" type="line"/>
			<point x="213.524597168" y="115.005859375" type="line"/>
			<point x="224.524597168" y="548.9879150391" type="line"/>
			<point x="224.524597168" y="828.7699584961" type="line"/>
			<point x="52.9454956055" y="849.7699584961" type="line"/>
			<point x="52.9454956055" y="951.9996948242" type="line"/>
			<point x="225.524597168" y="977.9996948242" type="line"/>
			<point x="223.9798583984" y="1254.2203369141" type="line" smooth="yes"/>
			<point x="220.408996582" y="1382.0949707031"/>
			<point x="342.9224853516" y="1507.2780761719"/>
			<point x="462.7222290039" y="1507.2780761719" type="qcurve" smooth="yes"/>
			<point x="520.3776855469" y="1507.2780761719"/>
			<point x="594.9230957031" y="1473.33984375"/>
			<point x="593.8965454102" y="1469.2119140625" type="qcurve" smooth="yes"/>
			<point x="592.5098266602" y="1460.2360839844" type="line"/>
			<point x="597.0526123047" y="1326.6904296875" type="line"/>
			<point x="603.0713500977" y="1329.4907226562" type="line" smooth="yes"/>
			<point x="591.0777587891" y="1337.2512207031"/>
			<point x="529.4938964844" y="1354.9914550781"/>
			<point x="508.8613891602" y="1354.9914550781" type="qcurve" smooth="yes"/>
			<point x="441.0386962891" y="1354.9914550781"/>
			<point x="367.2672119141" y="1302.6467895508"/>
			<point x="369.5739135742" y="1234.2976074219" type="qcurve" smooth="yes"/>
			<point x="369.0138549805" y="967.9996948242" type="line"/>
			<point x="629.4483642578" y="967.9996948242" type="line"/>
			<point x="629.4483642578" y="846.7699584961" type="line"/>
			<point x="368.0138549805" y="846.7699584961" type="line"/>
			<point x="367.0138549805" y="548.9879150391" type="line"/>
			<point x="373.0138549805" y="115.005859375" type="line"/>
			<point x="542.5138549805" y="80.005859375" type="line"/>
			<point x="542.5138549805" y="0" type="line"/>
		</contour>
	</outline>
	<anchor name="bottom" x="314" y="0"/>
	<anchor name="top" x="314" y="1536"/>
</glyph>
<glyph name="h" format="2">
	<unicode hex="0068"/>
	<advance width="1273"/>
	<outline>
		<contour>
			<point x="75.0329589844" y="0" type="line"/>
			<point x="75.0329589844" y="80.005859375" type="line"/>
			<point x="226.0329589844" y="115.005859375" type="line"/>
			<point x="228.0329589844" y="558.9879150391" type="line"/>
			<point x="226.0329589844" y="1379.994140625" type="line"/>
			<point x="99.0329589844" y="1409.994140625" type="line"/>
			<point x="99.0329589844" y="1500" type="line"/>
			<point x="304.0407714844" y="1529.0244140625" type="line"/>
			<point x="336.0407714844" y="1529.0244140625" type="line"/>
			<point x="396.0407714844" y="1480.0244140625" type="line"/>
			<point x="396.0407714844" y="848.1115112305" type="line"/>
			<point x="447.2609863281" y="914.7574462891"/>
			<point x="629.1133422852" y="1014.5311279297"/>
			<point x="734.7340087891" y="1014.5311279297" type="qcurve" smooth="yes"/>
			<point x="888.8997802734" y="1014.5311279297"/>
			<point x="1054.3127441406" y="860.3973388672"/>
			<point x="1054.3127441406" y="712.4715576172" type="qcurve" smooth="yes"/>
			<point x="1054.3127441406" y="640.3670043945"/>
			<point x="1053.4022216797" y="621.7960205078"/>
			<point x="1053.4022216797" y="557.9879150391" type="qcurve" smooth="yes"/>
			<point x="1057.678527832" y="115.005859375" type="line"/>
			<point x="1238.678527832" y="80.005859375" type="line"/>
			<point x="1238.678527832" y="0" type="line"/>
			<point x="721.670715332" y="0" type="line"/>
			<point x="721.670715332" y="80.005859375" type="line"/>
			<point x="880.670715332" y="115.005859375" type="line"/>
			<point x="884.8496704102" y="531.0411376953" type="line"/>
			<point x="884.8496704102" y="687.7292480469" type="line" smooth="yes"/>
			<point x="884.8496704102" y="777.0510253906"/>
			<point x="775.1810913086" y="874.8636474609"/>
			<point x="715.9992675781" y="874.8636474609" type="qcurve" smooth="yes"/>
			<point x="612.9885253906" y="874.8636474609"/>
			<point x="443.0270385742" y="785.4470214844"/>
			<point x="396.7919921875" y="725.1530151367" type="qcurve"/>
			<point x="394.0407714844" y="537.7581787109" type="line"/>
			<point x="397.0407714844" y="115.005859375" type="line"/>
			<point x="531.5407714844" y="80.005859375" type="line"/>
			<point x="531.5407714844" y="0" type="line"/>
		</contour>
	</outline>
	<anchor name="bottom" x="629" y="0"/>
	<anchor name="center" x="347" y="1202"/>
	<anchor name="top" x="304" y="1534"/>
</glyph>
<glyph name="k" format="2">
	<unicode hex="006B"/>
	<advance width="1007"/>
	<outline>
		<contour>
			<point x="75.3755493164" y="0" type="line"/>
			<point x="75.3755493164" y="80.005859375" type="line"/>
			<point x="229.3755493164" y="115.005859375" type="line"/>
			<point x="231.3755493164" y="532" type="line"/>
			<point x="229.3755493164" y="1379.994140625" type="line"/>
			<point x="87.3755493164" y="1409.994140625" type="line"/>
			<point x="87.3755493164" y="1500" type="line"/>
			<point x="302.7969360352" y="1529.0244140625" type="line"/>
			<point x="334.7969360352" y="1529.0244140625" type="line"/>
			<point x="393.7969360352" y="1480.0244140625" type="line"/>
			<point x="398.7969360352" y="572" type="line"/>
			<point x="395.7969360352" y="115.005859375" type="line"/>
			<point x="532.7969360352" y="80.005859375" type="line"/>
			<point x="532.7969360352" y="0" type="line"/>
		</contour>
		<contour>
			<point x="319.1631469727" y="360.1213989258" type="line"/>
			<point x="276.5767211914" y="458.4223022461" type="line"/>
			<point x="671.6239013672" y="873.3911132812" type="line"/>
			<point x="592.6239013672" y="903.3911132812" type="line"/>
			<point x="592.6239013672" y="999.3969726562" type="line"/>
			<point x="1010.2694091797" y="999.3969726562" type="line"/>
			<point x="1010.2694091797" y="903.3911132812" type="line"/>
			<point x="829.2694091797" y="868.3911132812" type="line"/>
		</contour>
		<contour>
			<point x="502.1302490234" y="585.7114257812" type="line"/>
			<point x="583.5259399414" y="679.3151855469" type="line"/>
			<point x="951.21484375" y="115.005859375" type="line"/>
			<point x="1065.21484375" y="80.005859375" type="line"/>
			<point x="1065.21484375" y="0" type="line"/>
			<point x="764.5289916992" y="0" type="line"/>
			<point x="748.0474853516" y="68.6353149414" type="line"/>
			<point x="759.4550170898" y="101.1538085938" type="line"/>
		</contour>
	</outline>
	<anchor name="bottom" x="608" y="0"/>
	<anchor name="top" x="578" y="1534"/>
</glyph>
<glyph name="m" format="2">
	<unicode hex="006D"/>
	<advance width="1879"/>
	<outline>
		<contour>
			<point x="75.3755493164" y="0" type="line"/>
			<point x="75.3755493164" y="80.005859375" type="line"/>
			<point x="223.3755493164" y="115.005859375" type="line"/>
			<point x="225.3755493164" y="552" type="line"/>
			<point x="223.3755493164" y="850.6923217773" type="line"/>
			<point x="65.3755493164" y="880.6923217773" type="line"/>
			<point x="65.3755493164" y="971.6981811523" type="line"/>
			<point x="315.6189575195" y="1006.7225952148" type="line"/>
			<point x="355.6189575195" y="979.7225952148" type="line"/>
			<point x="378.6189575195" y="817.1190795898" type="line"/>
			<point x="441.963684082" y="910.7218017578"/>
			<point x="609.5072631836" y="1014.9811401367"/>
			<point x="735.3373413086" y="1014.9811401367" type="qcurve" smooth="yes"/>
			<point x="877.9278564453" y="1014.9811401367"/>
			<point x="1019.4818725586" y="904.5573730469"/>
			<point x="1027.5916137695" y="830.8053588867" type="qcurve"/>
			<point x="1088.7406616211" y="906.0863647461"/>
			<point x="1262.0744018555" y="1014.9811401367"/>
			<point x="1379.0158081055" y="1014.9811401367" type="qcurve" smooth="yes"/>
			<point x="1527.5711669922" y="1014.9811401367"/>
			<point x="1670.1342163086" y="835.1099853516"/>
			<point x="1670.1342163086" y="669.7442016602" type="qcurve" smooth="yes"/>
			<point x="1669.1342163086" y="641.7082519531"/>
			<point x="1671.1998291016" y="558.3734130859"/>
			<point x="1671.8986206055" y="561" type="qcurve" smooth="yes"/>
			<point x="1672.8986206055" y="114.005859375" type="line"/>
			<point x="1872.8986206055" y="80.005859375" type="line"/>
			<point x="1872.8986206055" y="0" type="line"/>
			<point x="1387.4772338867" y="0" type="line"/>
			<point x="1387.4772338867" y="80.005859375" type="line"/>
			<point x="1501.4772338867" y="115.005859375" type="line"/>
			<point x="1506.4772338867" y="510" type="line"/>
			<point x="1506.4772338867" y="679.8986816406" type="line" smooth="yes"/>
			<point x="1506.4772338867" y="780.3067016602"/>
			<point x="1407.5087280273" y="865.4620361328"/>
			<point x="1313.6032104492" y="865.4620361328" type="qcurve" smooth="yes"/>
			<point x="1241.2597045898" y="865.4620361328"/>
			<point x="1069.3208007812" y="753.1041870117"/>
			<point x="1030.5391235352" y="706.3067626953" type="qcurve"/>
			<point x="1033.5391235352" y="665.5720214844"/>
			<point x="1030.303527832" y="533.6041259766"/>
			<point x="1030.5391235352" y="524" type="qcurve" smooth="yes"/>
			<point x="1028.5391235352" y="115.005859375" type="line"/>
			<point x="1181.5391235352" y="80.005859375" type="line"/>
			<point x="1181.5391235352" y="0" type="line"/>
			<point x="747.5889282227" y="0" type="line"/>
			<point x="747.5889282227" y="80.005859375" type="line"/>
			<point x="861.5889282227" y="115.005859375" type="line"/>
			<point x="866.5889282227" y="552" type="line"/>
			<point x="866.5889282227" y="712.8986816406" type="line" smooth="yes"/>
			<point x="866.5889282227" y="796.3067016602"/>
			<point x="777.7993774414" y="864.4620361328"/>
			<point x="680.9833374023" y="865.4620361328" type="qcurve" smooth="yes"/>
			<point x="610.7778930664" y="866.4620361328"/>
			<point x="426.4822387695" y="752.1041870117"/>
			<point x="392.6189575195" y="706.3067626953" type="qcurve"/>
			<point x="392.6189575195" y="552" type="line"/>
			<point x="394.6189575195" y="115.005859375" type="line"/>
			<point x="508.6189575195" y="80.005859375" type="line"/>
			<point x="508.6189575195" y="0" type="line"/>
		</contour>
	</outline>
	<anchor name="bottom" x="958" y="0"/>
	<anchor name="top" x="958" y="1000"/>
</glyph>
<glyph name="n" format="2">
	<unicode hex="006E"/>
	<advance width="1230"/>
	<outline>
		<contour>
			<point x="75.3755493164" y="0" type="line"/>
			<point x="75.3755493164" y="80.005859375" type="line"/>
			<point x="223.3755493164" y="115.005859375" type="line"/>
			<point x="225.3755493164" y="558.9879150391" type="line"/>
			<point x="223.3755493164" y="850.6923217773" type="line"/>
			<point x="65.3755493164" y="880.6923217773" type="line"/>
			<point x="65.3755493164" y="971.6981811523" type="line"/>
			<point x="321.4985961914" y="1006.7225952148" type="line"/>
			<point x="361.4985961914" y="979.7225952148" type="line"/>
			<point x="388.0274047852" y="826.5054931641" type="line"/>
			<point x="446.7874755859" y="901.6680297852"/>
			<point x="633.6376342773" y="1014.9811401367"/>
			<point x="763.6925048828" y="1014.9811401367" type="qcurve" smooth="yes"/>
			<point x="911.5631103516" y="1014.9811401367"/>
			<point x="1055.2974243164" y="847.6665039062"/>
			<point x="1055.2974243164" y="694.2329101562" type="qcurve" smooth="yes"/>
			<point x="1055.2974243164" y="638.1792602539"/>
			<point x="1055.6068725586" y="562.4515380859"/>
			<point x="1055.3869018555" y="551.2708740234" type="qcurve" smooth="yes"/>
			<point x="1056.3869018555" y="114.005859375" type="line"/>
			<point x="1216.3869018555" y="80.005859375" type="line"/>
			<point x="1216.3869018555" y="0" type="line"/>
			<point x="755.3790893555" y="0" type="line"/>
			<point x="755.3790893555" y="80.005859375" type="line"/>
			<point x="879.3790893555" y="115.005859375" type="line"/>
			<point x="885.3790893555" y="531.0411376953" type="line"/>
			<point x="885.3790893555" y="672.1714477539" type="line" smooth="yes"/>
			<point x="885.3790893555" y="778.5214233398"/>
			<point x="787.62890625" y="869.7430419922"/>
			<point x="683.9839477539" y="869.7430419922" type="qcurve" smooth="yes"/>
			<point x="590.4276733398" y="869.7430419922"/>
			<point x="426.479309082" y="765.1701660156"/>
			<point x="393.3833618164" y="715.2326660156" type="qcurve"/>
			<point x="391.3833618164" y="537.7581787109" type="line"/>
			<point x="394.3833618164" y="115.005859375" type="line"/>
			<point x="531.3833618164" y="80.005859375" type="line"/>
			<point x="531.3833618164" y="0" type="line"/>
		</contour>
	</outline>
	<anchor name="bottom" x="632" y="0"/>
	<anchor name="top" x="632" y="1000"/>
	<anchor name="liga" x="1264" y="0"/>
</glyph>
<glyph name="q" format="2">
	<unicode hex="0071"/>
	<advance width="1252"/>
	<outline>
		<contour>
			<point x="65.0130615234" y="488.7020874023" type="qcurve" smooth="yes"/>
			<point x="65.0130615234" y="740.7966308594"/>
			<point x="366.7603759766" y="1013.6226196289"/>
			<point x="596.2589111328" y="1013.6226196289" type="qcurve" smooth="yes"/>
			<point x="694.2181396484" y="1013.6226196289"/>
			<point x="892.7471313477" y="975.33203125"/>
			<point x="904.2069091797" y="975.428527832" type="qcurve"/>
			<point x="994.2069091797" y="999.1201782227" type="line"/>
			<point x="1196.3927001953" y="969.0957641602" type="line"/>
			<point x="1196.3927001953" y="880.3098754883" type="line"/>
			<point x="1063.3927001953" y="858.3098754883" type="line"/>
			<point x="1055.3927001953" y="431.6141967773" type="line"/>
			<point x="1057.3927001953" y="-369.994140625" type="line"/>
			<point x="1201.3927001953" y="-404.994140625" type="line"/>
			<point x="1201.3927001953" y="-480" type="line"/>
			<point x="711.2069091797" y="-480" type="line"/>
			<point x="711.2069091797" y="-404.994140625" type="line"/>
			<point x="886.2069091797" y="-371.994140625" type="line"/>
			<point x="892.2069091797" y="117.3734130859" type="line"/>
			<point x="862.323425293" y="68.7847290039"/>
			<point x="632.7958984375" y="-13.2780761719"/>
			<point x="505.4194335938" y="-13.2780761719" type="qcurve" smooth="yes"/>
			<point x="328.6711425781" y="-13.2780761719"/>
			<point x="65.0130615234" y="242.7846069336"/>
		</contour>
		<contour>
			<point x="241.2039794922" y="499.2484741211" type="qcurve" smooth="yes"/>
			<point x="241.2039794922" y="328.5055541992"/>
			<point x="408.5310058594" y="105.2669677734"/>
			<point x="548.2875976562" y="105.2669677734" type="qcurve" smooth="yes"/>
			<point x="687.3201904297" y="105.2669677734"/>
			<point x="863.8619995117" y="193.5331420898"/>
			<point x="893.2069091797" y="242.9340820312" type="qcurve"/>
			<point x="897.2069091797" y="800.3684692383" type="line"/>
			<point x="863.0263061523" y="858.6530761719"/>
			<point x="680.4257202148" y="914.3133544922"/>
			<point x="609.3626708984" y="914.3133544922" type="qcurve" smooth="yes"/>
			<point x="424.6060791016" y="914.3133544922"/>
			<point x="241.2039794922" y="668.6576538086"/>
		</contour>
	</outline>
	<anchor name="bottom" x="594" y="0"/>
	<anchor name="top" x="594" y="1000"/>
</glyph>
<glyph name="r" format="2">
	<unicode hex="0072"/>
	<advance width="945"/>
	<outline>
		<contour>
			<point x="78.0041503906" y="0" type="line"/>
			<point x="78.0041503906" y="80.005859375" type="line"/>
			<point x="222.0041503906" y="115.005859375" type="line"/>
			<point x="224.0041503906" y="500.9154052734" type="line"/>
			<point x="223.0041503906" y="850.6923217773" type="line"/>
			<point x="65.0041503906" y="880.6923217773" type="line"/>
			<point x="65.0041503906" y="971.6981811523" type="line"/>
			<point x="331.064453125" y="1006.7225952148" type="line"/>
			<point x="371.064453125" y="979.7225952148" type="line"/>
			<point x="388.8288574219" y="813.6981811523" type="line"/>
			<point x="457.3881225586" y="907.6981811523"/>
			<point x="690.0601196289" y="1000.2725830078"/>
			<point x="811.803527832" y="999.9713745117" type="qcurve" smooth="yes"/>
			<point x="900.3919067383" y="999.9713745117" type="line"/>
			<point x="900.3919067383" y="654.6967773438" type="line"/>
			<point x="792.0728759766" y="654.6967773438" type="line"/>
			<point x="750.0728759766" y="790.3020629883" type="line"/>
			<point x="669.6369628906" y="797.3020629883"/>
			<point x="455.6770019531" y="743.1829223633"/>
			<point x="394.4255371094" y="694.0620727539" type="qcurve"/>
			<point x="392.4255371094" y="500.9154052734" type="line"/>
			<point x="394.4255371094" y="115.005859375" type="line"/>
			<point x="567.4255371094" y="80.005859375" type="line"/>
			<point x="567.4255371094" y="0" type="line"/>
		</contour>
	</outline>
	<anchor name="bottom" x="432" y="0"/>
	<anchor name="top" x="486" y="1000"/>
</glyph>
<glyph name="s" format="2">
	<unicode hex="0073"/>
	<advance width="1009"/>
	<outline>
		<contour>
			<point x="106.9692993164" y="0" type="line"/>
			<point x="106.9692993164" y="357.9503173828" type="line"/>
			<point x="218.9764404297" y="357.9503173828" type="line"/>
			<point x="235.9764404297" y="260.2848510742" type="line" smooth="yes"/>
			<point x="255.1853637695" y="172.8223876953"/>
			<point x="420.2498168945" y="79.7677612305"/>
			<point x="515.8424072266" y="79.7677612305" type="qcurve" smooth="yes"/>
			<point x="630.4833984375" y="79.7677612305"/>
			<point x="780.4484863281" y="166.1421508789"/>
			<point x="780.4484863281" y="256.2721557617" type="qcurve" smooth="yes"/>
			<point x="780.4484863281" y="351.9367675781"/>
			<point x="648.2180786133" y="427.7707519531"/>
			<point x="476.412902832" y="473.2935180664" type="qcurve" smooth="yes"/>
			<point x="275.7842407227" y="529.7086791992"/>
			<point x="131.6352539062" y="649.8832397461"/>
			<point x="131.6352539062" y="770.5800170898" type="qcurve" smooth="yes"/>
			<point x="131.6352539062" y="887.6391601562"/>
			<point x="337.1381835938" y="1030.6701660156"/>
			<point x="503.9656982422" y="1030.6701660156" type="qcurve" smooth="yes"/>
			<point x="610.1085205078" y="1030.6701660156"/>
			<point x="708.8818969727" y="992.92578125"/>
			<point x="750.3684082031" y="963.92578125" type="qcurve"/>
			<point x="777.3684082031" y="999.3969726562" type="line"/>
			<point x="875.0526123047" y="999.3969726562" type="line"/>
			<point x="875.0526123047" y="682.5310058594" type="line"/>
			<point x="758.3684082031" y="682.5310058594" type="line"/>
			<point x="738.3684082031" y="773.503112793" type="line" smooth="yes"/>
			<point x="716.7862548828" y="845.6048583984"/>
			<point x="631.4284667969" y="918.8029785156"/>
			<point x="515.8203125" y="918.8029785156" type="qcurve" smooth="yes"/>
			<point x="400.4146728516" y="918.8029785156"/>
			<point x="295.6153564453" y="843.1520385742"/>
			<point x="295.6153564453" y="790.8461914062" type="qcurve" smooth="yes"/>
			<point x="295.6153564453" y="722.2485961914"/>
			<point x="416.9655151367" y="652.533996582"/>
			<point x="593.9766235352" y="608.9262695312" type="qcurve" smooth="yes"/>
			<point x="770.2346801758" y="559.7293701172"/>
			<point x="945.3812255859" y="425.2014160156"/>
			<point x="945.3812255859" y="277.7302246094" type="qcurve" smooth="yes"/>
			<point x="945.3812255859" y="136.0904541016"/>
			<point x="730.854309082" y="-32.5170898438"/>
			<point x="551.4407348633" y="-32.5170898438" type="qcurve" smooth="yes"/>
			<point x="444.5668945312" y="-32.5170898438"/>
			<point x="281.2055664062" y="20.7067871094"/>
			<point x="231.653503418" y="51.4711914062" type="qcurve"/>
			<point x="184.9764404297" y="0" type="line"/>
		</contour>
	</outline>
	<anchor name="bottom" x="468" y="0"/>
	<anchor name="top" x="416" y="1000"/>
</glyph>
<glyph name="u" format="2">
	<unicode hex="0075"/>
	<advance width="1253"/>
	<outline>
		<contour>
			<point x="49.9743041992" y="880.3911132812" type="line"/>
			<point x="49.9743041992" y="969.3969726562" type="line"/>
			<point x="234.6889038086" y="1001.3969726562" type="line"/>
			<point x="326.6889038086" y="1001.3969726562" type="line"/>
			<point x="379.6889038086" y="952.3969726562" type="line"/>
			<point x="377.6889038086" y="523.103515625" type="line"/>
			<point x="377.6889038086" y="294.9341430664" type="line" smooth="yes"/>
			<point x="377.6889038086" y="225.6126098633"/>
			<point x="471.8565673828" y="108.4629516602"/>
			<point x="554.6251831055" y="107.4629516602" type="qcurve" smooth="yes"/>
			<point x="637.8227539062" y="106.4629516602"/>
			<point x="790.9688110352" y="188.955871582"/>
			<point x="859.132019043" y="246.2646484375" type="qcurve"/>
			<point x="859.132019043" y="467.8791503906" type="line"/>
			<point x="857.132019043" y="850.3911132812" type="line"/>
			<point x="705.132019043" y="880.3911132812" type="line"/>
			<point x="705.132019043" y="969.3969726562" type="line"/>
			<point x="888.6110229492" y="1001.3969726562" type="line"/>
			<point x="980.6110229492" y="1001.3969726562" type="line"/>
			<point x="1033.6110229492" y="952.3969726562" type="line"/>
			<point x="1030.6110229492" y="467.8791503906" type="line"/>
			<point x="1033.6110229492" y="152.2648925781" type="line"/>
			<point x="1186.6110229492" y="122.2648925781" type="line"/>
			<point x="1186.6110229492" y="26" type="line"/>
			<point x="945.132019043" y="-8" type="line"/>
			<point x="882.132019043" y="39" type="line"/>
			<point x="855.0744018555" y="134" type="line"/>
			<point x="811.2606201172" y="61.9951171875"/>
			<point x="610.7274780273" y="-17.7756347656"/>
			<point x="514.3754272461" y="-17.7756347656" type="qcurve" smooth="yes"/>
			<point x="343.0844116211" y="-17.7756347656"/>
			<point x="201.9743041992" y="182.4650878906"/>
			<point x="201.9743041992" y="327.2243652344" type="qcurve" smooth="yes"/>
			<point x="201.9743041992" y="367.2243652344"/>
			<point x="207.9743041992" y="520.103515625"/>
			<point x="206.9743041992" y="551.103515625" type="qcurve" smooth="yes"/>
			<point x="200.9743041992" y="850.3911132812" type="line"/>
		</contour>
	</outline>
	<anchor name="bottom" x="622" y="0"/>
	<anchor name="ogonek" x="1030" y="20"/>
	<anchor name="top" x="622" y="1000"/>
	<anchor name="topright" x="1005" y="1000"/>
	<anchor name="cy_descender" x="1178" y="80"/>
</glyph>
<glyph name="v" format="2">
	<unicode hex="0076"/>
	<advance width="1080"/>
	<outline>
		<contour>
			<point x="-23.3068847656" y="903.3911132812" type="line"/>
			<point x="-23.3068847656" y="999.3969726562" type="line"/>
			<point x="437.9707641602" y="999.3969726562" type="line"/>
			<point x="437.9707641602" y="903.3911132812" type="line"/>
			<point x="313.9707641602" y="867.3911132812" type="line"/>
			<point x="465.1603393555" y="445.227355957" type="line"/>
			<point x="504.7683105469" y="264.9934692383" type="line"/>
			<point x="517.6774291992" y="173.553894043" type="line"/>
			<point x="527.6774291992" y="173.553894043" type="line"/>
			<point x="544.6811523438" y="262.9461669922" type="line"/>
			<point x="635.8400268555" y="508.4376220703" type="line"/>
			<point x="779.0802001953" y="868.3911132812" type="line"/>
			<point x="649.0802001953" y="903.3911132812" type="line"/>
			<point x="649.0802001953" y="999.3969726562" type="line"/>
			<point x="1102.7846069336" y="999.3969726562" type="line"/>
			<point x="1102.7846069336" y="903.3911132812" type="line"/>
			<point x="966.7846069336" y="868.3911132812" type="line"/>
			<point x="767.1731567383" y="427.9122314453" type="line"/>
			<point x="595.6543579102" y="4.9755859375" type="line"/>
			<point x="407.2459716797" y="4.9755859375" type="line"/>
			<point x="308.4533081055" y="373.5631713867" type="line"/>
			<point x="108.6931152344" y="868.3911132812" type="line"/>
		</contour>
	</outline>
	<anchor name="bottom" x="513" y="0"/>
	<anchor name="top" x="513" y="1000"/>
</glyph>
<glyph name="x" format="2">
	<unicode hex="0078"/>
	<advance width="983"/>
	<outline>
		<contour>
			<point x="9.3107910156" y="0" type="line"/>
			<point x="9.3107910156" y="80.005859375" type="line"/>
			<point x="163.3107910156" y="116.005859375" type="line"/>
			<point x="388.7861938477" y="486.2868041992" type="line"/>
			<point x="141.9219360352" y="868.3911132812" type="line"/>
			<point x="25.9219360352" y="903.3911132812" type="line"/>
			<point x="25.9219360352" y="999.3969726562" type="line"/>
			<point x="445.6119995117" y="999.3969726562" type="line"/>
			<point x="445.6119995117" y="903.3911132812" type="line"/>
			<point x="364.6119995117" y="866.3911132812" type="line"/>
			<point x="466.3304443359" y="697.3737792969" type="line"/>
			<point x="506.1362304688" y="595.6287841797" type="line"/>
			<point x="516.1362304688" y="595.6287841797" type="line"/>
			<point x="562.30859375" y="701.7204589844" type="line"/>
			<point x="660.2875366211" y="873.3911132812" type="line"/>
			<point x="537.2875366211" y="903.3911132812" type="line"/>
			<point x="537.2875366211" y="999.3969726562" type="line"/>
			<point x="950.2183227539" y="999.3969726562" type="line"/>
			<point x="950.2183227539" y="903.3911132812" type="line"/>
			<point x="812.2183227539" y="868.3911132812" type="line"/>
			<point x="592.8328857422" y="517.9401855469" type="line"/>
			<point x="866.5251464844" y="116.005859375" type="line"/>
			<point x="1002.5251464844" y="80.005859375" type="line"/>
			<point x="1002.5251464844" y="0" type="line"/>
			<point x="511.8237915039" y="0" type="line"/>
			<point x="511.8237915039" y="80.005859375" type="line"/>
			<point x="604.8237915039" y="114.005859375" type="line"/>
			<point x="507.616394043" y="295.03515625" type="line"/>
			<point x="475.8416748047" y="390.8739624023" type="line"/>
			<point x="464.8416748047" y="390.8739624023" type="line"/>
			<point x="432.8056640625" y="292.1909790039" type="line"/>
			<point x="339.3525390625" y="115.005859375" type="line"/>
			<point x="453.3525390625" y="80.005859375" type="line"/>
			<point x="453.3525390625" y="0" type="line"/>
		</contour>
	</outline>
	<anchor name="bottom" x="522" y="0"/>
	<anchor name="top" x="522" y="1000"/>
	<anchor name="cy_descender" x="1043" y="80"/>
</glyph>
